<mxfile host="Electron" modified="2023-11-21T09:09:16.892Z" agent="Mozilla/5.0 (Windows NT 10.0; Win64; x64) AppleWebKit/537.36 (KHTML, like Gecko) draw.io/22.1.2 Chrome/114.0.5735.289 Electron/25.9.4 Safari/537.36" etag="PBc8kDh-I9gBb3Qki-bz" version="22.1.2" type="device">
  <diagram name="Страница — 1" id="Psae5pIz3DZZ5baonaD-">
    <mxGraphModel dx="1276" dy="614" grid="1" gridSize="10" guides="1" tooltips="1" connect="1" arrows="1" fold="1" page="1" pageScale="1" pageWidth="827" pageHeight="1169" math="0" shadow="0">
      <root>
        <mxCell id="0" />
        <mxCell id="1" parent="0" />
        <mxCell id="znPD-jW0-cqoNlfztU7V-1" style="edgeStyle=orthogonalEdgeStyle;rounded=0;orthogonalLoop=1;jettySize=auto;html=1;exitX=0.5;exitY=1;exitDx=0;exitDy=0;entryX=0.5;entryY=0;entryDx=0;entryDy=0;" edge="1" parent="1" source="znPD-jW0-cqoNlfztU7V-2" target="znPD-jW0-cqoNlfztU7V-3">
          <mxGeometry relative="1" as="geometry">
            <mxPoint x="385" y="140" as="targetPoint" />
          </mxGeometry>
        </mxCell>
        <mxCell id="znPD-jW0-cqoNlfztU7V-2" value="&lt;font face=&quot;Times New Roman&quot; style=&quot;font-size: 14px;&quot;&gt;Начало&lt;/font&gt;" style="rounded=1;whiteSpace=wrap;html=1;arcSize=50;" vertex="1" parent="1">
          <mxGeometry x="300" y="30" width="170" height="50" as="geometry" />
        </mxCell>
        <mxCell id="znPD-jW0-cqoNlfztU7V-3" value="&lt;p&gt;&lt;font face=&quot;Times New Roman&quot; style=&quot;font-size: 14px;&quot;&gt;n, A, B, C&lt;/font&gt;&lt;/p&gt;" style="shape=parallelogram;html=1;strokeWidth=2;perimeter=parallelogramPerimeter;whiteSpace=wrap;rounded=1;arcSize=12;size=0.23;" vertex="1" parent="1">
          <mxGeometry x="317.5" y="110" width="135" height="80" as="geometry" />
        </mxCell>
        <mxCell id="znPD-jW0-cqoNlfztU7V-4" value="i = 1...n" style="strokeWidth=2;html=1;shape=mxgraph.flowchart.loop_limit;whiteSpace=wrap;" vertex="1" parent="1">
          <mxGeometry x="335" y="240" width="100" height="60" as="geometry" />
        </mxCell>
        <mxCell id="znPD-jW0-cqoNlfztU7V-5" value="" style="endArrow=classic;html=1;rounded=0;entryX=0.5;entryY=0;entryDx=0;entryDy=0;entryPerimeter=0;exitX=0.5;exitY=1;exitDx=0;exitDy=0;" edge="1" parent="1" source="znPD-jW0-cqoNlfztU7V-3" target="znPD-jW0-cqoNlfztU7V-4">
          <mxGeometry width="50" height="50" relative="1" as="geometry">
            <mxPoint x="390" y="220" as="sourcePoint" />
            <mxPoint x="380" y="250" as="targetPoint" />
          </mxGeometry>
        </mxCell>
        <mxCell id="znPD-jW0-cqoNlfztU7V-6" style="edgeStyle=orthogonalEdgeStyle;rounded=0;orthogonalLoop=1;jettySize=auto;html=1;exitX=1;exitY=0.5;exitDx=0;exitDy=0;exitPerimeter=0;entryX=0.5;entryY=0;entryDx=0;entryDy=0;" edge="1" parent="1" source="znPD-jW0-cqoNlfztU7V-4" target="znPD-jW0-cqoNlfztU7V-13">
          <mxGeometry relative="1" as="geometry">
            <mxPoint x="380" y="750" as="targetPoint" />
            <Array as="points">
              <mxPoint x="436" y="280" />
              <mxPoint x="580" y="280" />
              <mxPoint x="580" y="565" />
              <mxPoint x="376" y="565" />
            </Array>
          </mxGeometry>
        </mxCell>
        <mxCell id="znPD-jW0-cqoNlfztU7V-7" style="edgeStyle=orthogonalEdgeStyle;rounded=0;orthogonalLoop=1;jettySize=auto;html=1;exitX=1;exitY=0.5;exitDx=0;exitDy=0;exitPerimeter=0;entryX=0.006;entryY=0.64;entryDx=0;entryDy=0;entryPerimeter=0;" edge="1" parent="1" source="znPD-jW0-cqoNlfztU7V-8" target="znPD-jW0-cqoNlfztU7V-4">
          <mxGeometry relative="1" as="geometry">
            <mxPoint x="210" y="280" as="targetPoint" />
            <Array as="points">
              <mxPoint x="561" y="365" />
              <mxPoint x="561" y="535" />
              <mxPoint x="220" y="535" />
              <mxPoint x="220" y="278" />
            </Array>
          </mxGeometry>
        </mxCell>
        <mxCell id="znPD-jW0-cqoNlfztU7V-8" value="&lt;font face=&quot;Times New Roman&quot; style=&quot;font-size: 14px;&quot;&gt;j = 1...n&lt;/font&gt;" style="strokeWidth=2;html=1;shape=mxgraph.flowchart.loop_limit;whiteSpace=wrap;" vertex="1" parent="1">
          <mxGeometry x="335" y="335" width="100" height="60" as="geometry" />
        </mxCell>
        <mxCell id="znPD-jW0-cqoNlfztU7V-9" value="" style="endArrow=classic;html=1;rounded=0;exitX=0.5;exitY=1;exitDx=0;exitDy=0;exitPerimeter=0;entryX=0.5;entryY=0;entryDx=0;entryDy=0;entryPerimeter=0;" edge="1" parent="1" source="znPD-jW0-cqoNlfztU7V-4" target="znPD-jW0-cqoNlfztU7V-8">
          <mxGeometry width="50" height="50" relative="1" as="geometry">
            <mxPoint x="130" y="360" as="sourcePoint" />
            <mxPoint x="180" y="310" as="targetPoint" />
          </mxGeometry>
        </mxCell>
        <mxCell id="znPD-jW0-cqoNlfztU7V-10" style="edgeStyle=orthogonalEdgeStyle;rounded=0;orthogonalLoop=1;jettySize=auto;html=1;exitX=0.5;exitY=1;exitDx=0;exitDy=0;entryX=0;entryY=0.5;entryDx=0;entryDy=0;entryPerimeter=0;" edge="1" parent="1" source="znPD-jW0-cqoNlfztU7V-11" target="znPD-jW0-cqoNlfztU7V-8">
          <mxGeometry relative="1" as="geometry">
            <mxPoint x="335" y="520" as="targetPoint" />
            <Array as="points">
              <mxPoint x="385" y="515" />
              <mxPoint x="260" y="515" />
              <mxPoint x="260" y="365" />
            </Array>
          </mxGeometry>
        </mxCell>
        <mxCell id="znPD-jW0-cqoNlfztU7V-11" value="&lt;font style=&quot;font-size: 14px;&quot; face=&quot;Times New Roman&quot;&gt;C&lt;sub&gt;i*n+j&amp;nbsp;&lt;/sub&gt;=&lt;/font&gt;&lt;font face=&quot;Times New Roman&quot; style=&quot;font-size: 14px;&quot;&gt;&lt;span style=&quot;border-color: var(--border-color);&quot;&gt;&amp;nbsp;&lt;/span&gt;&lt;/font&gt;&lt;font style=&quot;font-size: 14px;&quot; face=&quot;Times New Roman&quot;&gt;A&lt;sub style=&quot;border-color: var(--border-color);&quot;&gt;i*n+j&lt;/sub&gt;&lt;span style=&quot;border-color: var(--border-color);&quot;&gt;&amp;nbsp;+&amp;nbsp;&lt;/span&gt;&lt;span style=&quot;border-color: var(--border-color);&quot;&gt;B&lt;/span&gt;&lt;sub style=&quot;border-color: var(--border-color);&quot;&gt;i*n+j&lt;/sub&gt;&lt;/font&gt;" style="rounded=1;whiteSpace=wrap;html=1;absoluteArcSize=1;arcSize=14;strokeWidth=2;" vertex="1" parent="1">
          <mxGeometry x="279.5" y="425" width="211" height="65" as="geometry" />
        </mxCell>
        <mxCell id="znPD-jW0-cqoNlfztU7V-12" value="" style="endArrow=classic;html=1;rounded=0;exitX=0.5;exitY=1;exitDx=0;exitDy=0;exitPerimeter=0;entryX=0.5;entryY=0;entryDx=0;entryDy=0;" edge="1" parent="1" source="znPD-jW0-cqoNlfztU7V-8" target="znPD-jW0-cqoNlfztU7V-11">
          <mxGeometry width="50" height="50" relative="1" as="geometry">
            <mxPoint x="420" y="400" as="sourcePoint" />
            <mxPoint x="385.5" y="410" as="targetPoint" />
          </mxGeometry>
        </mxCell>
        <mxCell id="znPD-jW0-cqoNlfztU7V-13" value="&lt;font face=&quot;Times New Roman&quot; style=&quot;font-size: 14px;&quot;&gt;Конец&lt;/font&gt;" style="rounded=1;whiteSpace=wrap;html=1;arcSize=50;" vertex="1" parent="1">
          <mxGeometry x="300" y="590" width="170" height="50" as="geometry" />
        </mxCell>
      </root>
    </mxGraphModel>
  </diagram>
</mxfile>
